<svg xmlns="http://www.w3.org/2000/svg" viewBox="0 0 669.89 272.11">
  <defs>
    <style>
      .cls-1 {
        fill: #fff;
      }

      .cls-2 {
        fill: none;
      }

      .cls-3 {
        fill: #262626;
      }

      .cls-4 {
        fill: #1e1e1e;
      }
    </style>
  </defs>
  <path class="cls-1"
    d="M332.89,272.11c-5.47-6.8-10.77-13.75-16.54-20.29-1.31-1.48-4.21-2-6.43-2.15-5.47-.45-11-.62-16.47-.63-44.66,0-89.32,0-134,.21-8.13.05-16.24,1.48-24.37,2-3.56.24-7.23-.66-10.7-.1-2.61.41-5,2.31-8.27,3.94L110,250,92.79,266c-5.54-3.63-10.87-7-16.08-10.57-6.17-4.2-11.08-9.49-14-16.54a13.45,13.45,0,0,0-9.91-8.4c-14.52-3.19-23.35-13.19-29.14-25.75-3.5-7.59-4.88-16.17-7-24.36a20,20,0,0,1-.28-6.42c.6-7.91-.87-10.61-8.12-14.22-2.5-1.25-5-2.45-8.3-4,4.51-1.38,8.28-2.38,11.94-3.68,5.32-1.88,7.23-5,5.76-10.45s.3-9.63,2.68-14.21c1.84-3.55,2.5-7.69,3.9-11.48a18.83,18.83,0,0,1,3.11-5.94A75.23,75.23,0,0,1,35,102.74c5.83-5.07,10.85-11.47,19.7-11.56-3.88-8.27-3.14-11.08,2.82-17.28,2.93-3,4.91-7,7.57-10.29a81.19,81.19,0,0,1,7-7.56A20.61,20.61,0,0,1,76,53.66c9-5.52,8.85-5.32,16.47,1.75a15.38,15.38,0,0,0,8.82,3.75,207.78,207.78,0,0,0,22.46-.09A6.15,6.15,0,0,0,128,56.36c4.88-8.57,9.43-17.32,14.19-25.95.61-1.13,1.86-1.9,2.74-2.89,6.22-6.92,6.4-10.56,1-18l-2.06-2.88h128C267.23,12.31,263,17.74,258.54,23c-.67.78-2.45.85-3.72.84-20.12,0-40.25-.34-60.37-.19-17.7.14-30.07,9.37-38.7,24.16-5.86,10-7.31,20.92-5,32.87-5.18-.32-10.09-1-15-.87-10.92.18-21.84.73-32.76,1.09-1.3,0-3.1.28-3.82-.43-4.12-4-7.68-1.19-9.5,1.72-5.61,9-14.37,16.28-15.1,28.13-.15,2.55-3.37,5.82-6,7.13-7.54,3.75-13.33,8.73-15.81,17.24l-5.14-1c-2.63,4,1.27,11.37-7.54,12,3.24,10.44,6.3,20.8.21,29.62,2.72,3.62,4.9,6.77,7.32,9.71,3.46,4.2,6.9,8.45,10.72,12.31,4.38,4.42,10.36,7.55,11.08,14.72,0,.47.33,1.29.59,1.32,8,1,5.41,8.62,8.07,12.94.07.11.22.17.61.46l3.68-4.4,2.36,4,18-11.2c2.57,5.52,5,10.75,7.73,16.66,4.92-4.36,9.66-2.74,14.66-.84,2.55,1,5.56,1,8.37,1q83,.07,166,0c1.5,0,3.24.4,4.45-.21,9.73-4.92,15,1.66,20.42,7.76,2.71,3.07,5.27,6,9.56,2.54l3.2,4.17c4.84-4.63,9.33-9.26,14.22-13.42a10.35,10.35,0,0,1,6.45-2.08c6.13.16,12.26,1.31,18.39,1.32q75.23.1,150.47-.17c8.09,0,16.17-1.53,24.27-2.06,1.94-.13,4,.92,6.48,1.57l8.89-15.72,16.28,10.05,3.71-5.82,3.83,2.49c2.52-2.77,4.85-5.29,7.14-7.86,1-1.11,2.64-2.29,2.65-3.46.07-5.52,4.06-8.25,7.72-10.82,13.93-9.82,18-23.79,17.83-39.87,0-1.31,1.54-2.64,2.49-4.14-.81-1.08-1.69-2.28-2.7-3.65l5.48-4.29-7.62-3.6c.44-5-1.39-8.78-5.91-11.11-.43-.22-1-.52-1.15-.92-3.21-8.37-11.1-11.46-17.69-16.13a12.55,12.55,0,0,1-4.58-7.18C592.3,102,589.44,95.51,584.2,90a7.34,7.34,0,0,1-2.14-3.31C581,80.48,577,79.91,571.58,80c-7.63.17-15.26-.78-22.9-.87-6.11-.08-12.23.68-18.33.57-5-.1-10.05-1.09-12.73,2.86,0-6.42.92-13.55-.16-20.38-3.49-22.07-21.22-37.39-43.67-38-17-.44-34-.51-51-.09-8.2.21-14.65-1.62-19.15-8.87-1.8-2.89-4.28-5.34-7-8.6H524.6c-1.44,2-2.6,3.47-3.68,5-4.07,5.9-3.34,10.38,1.74,15.48,3.13,3.15,6.32,6.59,8.24,10.51,3,6.14,8.32,11.17,9,18.55.1,1.11,2.88,2.75,4.46,2.8a210.41,210.41,0,0,0,24.48-.1c2.82-.23,6-2.66,8-5,4.92-5.67,6.63-6.27,13-2.29a77.13,77.13,0,0,1,12.5,9.18c1,2.23,1.58,4.71,3,6.65a102.66,102.66,0,0,0,7.46,8.73c4.68,5.19,4.8,6.14,1.29,12.12a8.67,8.67,0,0,0-.68,1.79c13,4.25,21.44,13.73,29.74,23.28,1.59,1.83,1.73,4.93,2.51,7.45.53,1.73.62,3.73,1.57,5.18,3.62,5.54,5.31,11.1,3.54,17.91-1.16,4.49,2.71,6.82,6.6,8,4.13,1.24,8.38,2.1,12.58,3.13v2c-3.79,1.22-7.55,2.53-11.38,3.66-4.45,1.3-6.75,4-6.29,8.79,1.42,14.59-3.93,27.45-10.37,40-5.52,10.72-13.62,18-25.92,20.77-3.66.82-8.1,4.39-9.54,7.81-6.12,14.51-20.09,19.6-31,28.29-4.7-4.63-9-8.78-13.19-13-2.52-2.56-5-3.1-7.72-.37a10.07,10.07,0,0,1-1.85,1.38c-3.58-1.37-6.32-2.91-9.23-3.38s-5.81.54-8.68.34c-8.3-.58-16.57-2.07-24.86-2.1-50.29-.2-100.58-.12-150.88,0-1.89,0-4.5.26-5.55,1.47-6.05,7-11.72,14.24-17.53,21.42Z" />
  <path class="cls-2" d="M356.35,138.81c-.3.1-.6.17-.9.26Z" />
  <path class="cls-2"
    d="M356.68,138.71a70.75,70.75,0,0,0,27.3-15c26.49-23.59,32.45-59,17.7-88.09a74.54,74.54,0,0,1-45,103.1Z" />
  <path class="cls-1"
    d="M615,153.15a7.49,7.49,0,0,0-.63-1.89l-6.39.76c0-2-.08-3.64,0-5.28.69-11.56-4.6-19.46-15-24.11-4.44-2-6-5.52-7.26-10-1.48-5.34-2.87-11.71-6.58-15.17-4.7-4.36-11.45-7.26-17.8-8.89s-13.5-1.27-20.3-1.31c-8.14,0-16.08.54-23.33,5.44-4.07,2.75-9.21,3.91-14.89,6.2,1.25-4.41,2.29-7.37,2.91-10.43,1.56-7.63,4.29-15.33,4.1-22.94-.46-17.69-18.21-33.19-36.88-33.33s-37.33-.12-56,0c-6.65.05-12-2.21-16.05-7.5a87.29,87.29,0,0,0-9.05-10.65c-2.33-2.16-5.62-3.29-8.48-4.88l-.95,1.51a74.66,74.66,0,0,1,19.23,24.91c14.75,29,8.79,64.5-17.7,88.09a70.75,70.75,0,0,1-27.3,15l-.33.1-.9.26a74.52,74.52,0,0,1-89.8-100.22c4-10.93,11-20,18.77-28.82-2.73.67-5.45,1.53-7.16,3.34a103.11,103.11,0,0,0-9.7,12.05c-3.35,4.82-7.52,6.94-13.49,6.81-13.3-.3-26.61-.07-39.92-.09-5.83,0-11.67.09-17.49-.22-14.56-.76-24.93,6.34-32.49,17.83-7.37,11.22-8.74,23.2-2,35.42L167,93.78c-6.13,3.13-11,3.29-16.61-.93C146.49,90,141,88.46,136.06,88c-7.91-.72-15.94,0-23.92,0-4.89,0-9.39.65-10.65,6H90.25c-2,4.75-5,9.75-6.32,15.13-1.91,7.66-5.28,13.2-13,16.32-7.35,3-10.81,9.07-10.1,17.21.12,1.3,0,2.61,0,4.22l-7-1.63c0,9.57.33,18.68-.1,27.75-.36,7.54,3.11,12.52,8.62,17a80.09,80.09,0,0,1,11.91,11.28c3.35,4.11,6.12,8.14,12,5.21l3,6.75c10.29-8.18,19-6.54,25.37,4.71l4.59-4.37c2.72,10.23,10.1,10.83,18.32,10.35,5.81-.34,11.66.09,17.49.09q70.24,0,140.49,0c8.62,0,8.62,0,10.67-8.07.06-.23.5-.36,1.24-.85,5.57,7.73,16.83,7.74,22.05,16.71,2.16,3.71,6.55,3.19,9.42-.15,4.09-4.75,7.69-9.75,14.35-11.47,2.67-.69,4.92-3,7.45-4.68,3,8.51,3,8.55,12.35,8.5q54.72-.27,109.46-.58c18.16-.09,36.32-.28,54.48-.21,5.23,0,9.25-1.08,10.21-7.1l5.45,2.72c4.16-3.82,7.55-9.24,12-10.34s9.89,2.21,15.16,3.65l3.4-6.17,3.89,1.88-.61-1.31c6.51-5.33,12.88-10.83,19.56-15.94,4.87-3.74,8.7-8.32,9.16-14.31C615.82,168.64,615.14,160.88,615,153.15Z" />
  <path class="cls-3"
    d="M119.89,197.58c.9.14,1.51.25,1.85.32l.67.11c1.56.29,3,.52,4.44.7a29.93,29.93,0,0,0,3.78.27,7.83,7.83,0,0,0,4.44-1.08c1.06-.72,1.59-2.06,1.59-4v-57a9.76,9.76,0,0,0-1.42-5.09,24.72,24.72,0,0,0-3.27-4.33,31.2,31.2,0,0,0-3.69-3.36c-1.23-.94-2.13-1.59-2.68-1.95h48.8q-4.2,2.82-6.54,4.66a15.9,15.9,0,0,0-3.44,3.47,8,8,0,0,0-1.34,3.3,29.46,29.46,0,0,0-.25,4.28V201.8a61.3,61.3,0,0,0,10.06,1.79,123.89,123.89,0,0,0,13.59.7c3,0,6-.11,9-.32a69,69,0,0,0,8.3-1.09,38.86,38.86,0,0,0,6.88-1.95,11.54,11.54,0,0,0,4.53-2.92v18.74q-1.68,1.73-7.55,2.54a110.9,110.9,0,0,1-14.93.82q-12.92,0-29.94-1.47t-34.46-3.84Z" />
  <path class="cls-3"
    d="M175.24,198c1-.8,1.95-1.63,2.85-2.49a16.19,16.19,0,0,0,2.1-2.66,5.53,5.53,0,0,0,.92-3V147.42a11.81,11.81,0,0,0-2-6,15.63,15.63,0,0,0-5.87-5.47h36.89a23.45,23.45,0,0,0-6.45,5.52c-1.74,2.17-2.6,4.19-2.6,6.07,0,1.66,0,3.54.08,5.63s.14,4.75.25,8,.2,7.14.25,11.76.09,10.29.09,17a4.27,4.27,0,0,0,1.42,3,18.78,18.78,0,0,0,3.27,2.66,36.36,36.36,0,0,0,4.7,2.49Z" />
  <path class="cls-3"
    d="M219.68,198c0,.14.5-.09,1.51-.71a24.45,24.45,0,0,0,3.27-2.43,20.32,20.32,0,0,0,3.19-3.47,6.44,6.44,0,0,0,1.42-3.79V148.5c-1.23,0-2.68.06-4.36.17a33.61,33.61,0,0,0-5,.7,21.72,21.72,0,0,0-4.69,1.57,7.79,7.79,0,0,0-3.36,2.87v-18.2H269v16.9q-1.85-2.49-6.88-3.25a87.3,87.3,0,0,0-12.57-.76v37.27a8.56,8.56,0,0,0,1.67,5.14,16,16,0,0,0,3.86,3.85A21.06,21.06,0,0,0,260.6,198Z" />
  <path class="cls-3"
    d="M276,198q1.52-1.2,2.85-2.49a15.67,15.67,0,0,0,2.1-2.66,5.53,5.53,0,0,0,.92-3c0-.5,0-1.44-.08-2.81s-.11-3-.17-4.82-.11-3.87-.17-6.07-.08-4.39-.08-6.55q-.34-7.69-.5-17-3.69-.87-6.54-1.62-2.52-.66-4.53-1.14c-1.34-.33-2-.56-2-.71a18,18,0,0,1,2.43-1.46q2.43-1.35,6-3.41l7.8-4.44,7.8-4.44q3.62-2.06,8.3-4.77v36.18a87.4,87.4,0,0,1,10.57-4.12,94.86,94.86,0,0,1,11.07-2.7v-6.61l-9.73-4.33L340.27,131v27.19l14.25-.32v9.64L340.27,169v20.8a5.06,5.06,0,0,0,.84,2.81,12.62,12.62,0,0,0,2,2.39,15.24,15.24,0,0,0,2.43,1.84c.84.5,1.54.9,2.1,1.19h-32c1.35-1.08,2.74-2.24,4.2-3.47a6.07,6.07,0,0,0,2.18-4.87V171.14a109.07,109.07,0,0,0-10.82,2.55,48.07,48.07,0,0,0-11,4.82v11.37a4.29,4.29,0,0,0,1.43,3,18.78,18.78,0,0,0,3.27,2.66,35.72,35.72,0,0,0,4.7,2.49Z" />
  <path class="cls-3"
    d="M356.7,198c1-.8,2-1.63,2.86-2.49a15.62,15.62,0,0,0,2.09-2.66,5.45,5.45,0,0,0,.92-3V147.42a11.81,11.81,0,0,0-2-6,15.63,15.63,0,0,0-5.87-5.47h36.9a23.5,23.5,0,0,0-6.46,5.52q-2.6,3.25-2.6,6.07c0,1.66,0,3.54.09,5.63s.14,4.75.25,8,.19,7.14.25,11.76.08,10.29.08,17a4.29,4.29,0,0,0,1.43,3,18.78,18.78,0,0,0,3.27,2.66,35.72,35.72,0,0,0,4.7,2.49Z" />
  <path class="cls-3"
    d="M390.58,145.69q2.18-.76,5.54-1.74c2.23-.65,4.61-1.39,7.12-2.22s5.12-1.69,7.8-2.6,5.2-1.82,7.55-2.76v40.84l8.89,8.77,9.06-8.77V150.78c0-.36-.51-.81-1.51-1.35s-2.13-1.11-3.36-1.68-2.91-1.34-4.69-2.06q4.53-1.63,9.3-3.25l8.56-2.93q3.77-1.29,8.64-3v44c0,1.37-.93,3.18-2.77,5.42a45,45,0,0,1-6.88,6.6,52.54,52.54,0,0,1-8.64,5.58,17.89,17.89,0,0,1-8.05,2.33,15.12,15.12,0,0,1-5.11-1.08,50,50,0,0,1-6.21-2.82,65.86,65.86,0,0,1-6.45-3.9,52.53,52.53,0,0,1-5.62-4.33,40.17,40.17,0,0,1-4-4.06,5.47,5.47,0,0,1-1.59-3.09V150.56a13.15,13.15,0,0,0-3.44-2.81C393.4,147,392,146.34,390.58,145.69Z" />
  <path class="cls-3"
    d="M468.74,151.1a7.57,7.57,0,0,0-1.09-1.19c-.73-.72-1.54-1.48-2.44-2.27l-3.35-3.14,23.31-10.19q1.84,3.8,4.45,8.07t5.19,8.45q2.61,4.17,4.87,8c1.51,2.52,2.77,4.73,3.77,6.6a16.6,16.6,0,0,0,1.26-2.38q.92-2,2.1-4.66t2.51-5.9c.9-2.13,1.76-4.15,2.6-6.07s1.59-3.61,2.27-5.09,1.17-2.51,1.51-3.09h25.82a16,16,0,0,0-2.85,1.63,9.16,9.16,0,0,0-2,1.73,3.12,3.12,0,0,0-.84,2.06v48.42a6.54,6.54,0,0,0,1.76,2.82,15.27,15.27,0,0,0,4.61,3c.56.22.79.29.68.22h-26.5c.44-.29.89-.62,1.34-1a6.64,6.64,0,0,0,.92-1.3,4,4,0,0,0,.42-2V160.53l-15.6,36.72-16.94-29.36v11.05q0,4.34-.08,8.45c-.06,2.75-.08,4.63-.08,5.64a4.08,4.08,0,0,0,.58,2.22,8.84,8.84,0,0,0,1.26,1.57,5.59,5.59,0,0,0,1.84,1.3H462.19a17.18,17.18,0,0,0,3-1.74,20.56,20.56,0,0,0,2.18-1.84,4.91,4.91,0,0,0,1.35-2.16Z" />
  <path class="cls-3"
    d="M176.63,41h21.18c2,0,3.67,0,5.08-.05s2.25,0,2.51,0a7.88,7.88,0,0,0-1.58,1.16,4.53,4.53,0,0,0-1.12,1.38,4.16,4.16,0,0,0-.47,2v.64l.6,2.81c.3,1.45.7,3.18,1.18,5.2s1,4.24,1.66,6.68,1.27,4.9,2,7.38q2.25,8.81,5.15,19.42l14-45.21,14.78,44q1.86-9.76,3.3-17.93.66-3.51,1.32-6.9c.44-2.26.84-4.39,1.19-6.37s.66-3.67.93-5.09.48-2.44.65-3.08a5.69,5.69,0,0,0,.14-1.38,5.08,5.08,0,0,0-.46-2.28A5.18,5.18,0,0,0,245.92,41h31.41a16.37,16.37,0,0,0-2.24,1.7,21.34,21.34,0,0,0-2.25,2.12q-1.18,1.27-2.64,3a15.26,15.26,0,0,0-1.65,3.72q-1,2.86-2.11,7.06c-.75,2.79-1.54,5.89-2.37,9.28s-1.65,6.86-2.44,10.4-1.55,7-2.25,10.4-1.32,6.49-1.85,9.28-.94,5.15-1.25,7.06a31.44,31.44,0,0,0-.46,3.61,6.09,6.09,0,0,0,.66,2.86,7.58,7.58,0,0,0,1.58,2.13,8.64,8.64,0,0,0,2.38,1.7H230.08a4.37,4.37,0,0,0,1.32-1.07,5.75,5.75,0,0,0,1-1.43,4.7,4.7,0,0,0,.46-2.17,12.63,12.63,0,0,0-.19-1.65c-.14-.81-.33-1.8-.6-3s-.55-2.42-.86-3.77-.64-2.69-1-4q-1.19-4.77-2.5-10.51-1.32,5.42-2.51,10c-.71,2.62-1.32,5.18-1.85,7.69s-.84,4.23-.92,5.15v.53a5.47,5.47,0,0,0,.33,2.07,4,4,0,0,0,.85,1.33,4.71,4.71,0,0,0,1.19.85H194.18a18.79,18.79,0,0,0,2.91-1.92,14.81,14.81,0,0,0,2-2,3.87,3.87,0,0,0,1-2.55,35.32,35.32,0,0,0-1.19-5.36q-1.19-4.5-3.1-10.77t-4.09-13.53q-2.18-7.26-4.22-13.69T184,54.34c-1-3.15-1.58-5.15-1.85-6a16.27,16.27,0,0,0-1.58-3.24,11.73,11.73,0,0,0-1.85-2.28A16.17,16.17,0,0,0,176.63,41Z" />
  <path class="cls-3"
    d="M387.63,41h21.18c2,0,3.67,0,5.08-.05s2.25,0,2.51,0a7.88,7.88,0,0,0-1.58,1.16,4.53,4.53,0,0,0-1.12,1.38,4.16,4.16,0,0,0-.47,2v.64l.6,2.81c.3,1.45.7,3.18,1.18,5.2s1,4.24,1.66,6.68,1.27,4.9,2,7.38q2.25,8.81,5.15,19.42l14-45.21,14.78,44q1.86-9.76,3.3-17.93.66-3.51,1.32-6.9c.44-2.26.84-4.39,1.19-6.37s.66-3.67.93-5.09.48-2.44.65-3.08a5.69,5.69,0,0,0,.14-1.38,5.08,5.08,0,0,0-.46-2.28A5.18,5.18,0,0,0,456.92,41h31.41a16.37,16.37,0,0,0-2.24,1.7,21.34,21.34,0,0,0-2.25,2.12q-1.18,1.27-2.64,3a15.26,15.26,0,0,0-1.65,3.72q-1,2.86-2.11,7.06c-.75,2.79-1.54,5.89-2.37,9.28s-1.65,6.86-2.44,10.4-1.55,7-2.25,10.4-1.32,6.49-1.85,9.28-.94,5.15-1.25,7.06a31.44,31.44,0,0,0-.46,3.61,6.09,6.09,0,0,0,.66,2.86,7.58,7.58,0,0,0,1.58,2.13,8.64,8.64,0,0,0,2.38,1.7H441.08a4.37,4.37,0,0,0,1.32-1.07,5.75,5.75,0,0,0,1-1.43,4.7,4.7,0,0,0,.46-2.17,12.63,12.63,0,0,0-.19-1.65c-.14-.81-.33-1.8-.6-3s-.55-2.42-.86-3.77-.64-2.69-1-4q-1.18-4.77-2.5-10.51-1.32,5.42-2.51,10c-.71,2.62-1.32,5.18-1.85,7.69s-.84,4.23-.92,5.15v.53a5.47,5.47,0,0,0,.33,2.07,4,4,0,0,0,.85,1.33,4.71,4.71,0,0,0,1.19.85H405.18a18.79,18.79,0,0,0,2.91-1.92,14.81,14.81,0,0,0,2-2,3.87,3.87,0,0,0,1-2.55,35.32,35.32,0,0,0-1.19-5.36q-1.19-4.5-3.1-10.77t-4.09-13.53q-2.17-7.26-4.22-13.69T395,54.34c-1-3.15-1.58-5.15-1.85-6a16.27,16.27,0,0,0-1.58-3.24,11.73,11.73,0,0,0-1.85-2.28A16.17,16.17,0,0,0,387.63,41Z" />
  <circle class="cls-1" cx="335.39" cy="66.61" r="66.5" />
  <path class="cls-3"
    d="M309.84,67.58l-4.4-4.38a20.88,20.88,0,0,0-29.43,0,20.52,20.52,0,0,0-5.51,19.53,66.71,66.71,0,0,0,29.67,40.48,19.26,19.26,0,0,0,23.71-2.68,17.5,17.5,0,0,1,12.33-5.08,10.35,10.35,0,0,0,10.38-10.32,16.78,16.78,0,0,0-16.82-16.74h-4.08A12.22,12.22,0,0,1,313.43,76.2a12.15,12.15,0,0,0-3.59-8.62Z" />
  <path class="cls-4"
    d="M323.88,120.53a17.5,17.5,0,0,1,12.33-5.08,10.35,10.35,0,0,0,10.38-10.32,16.61,16.61,0,0,0-2.58-8.9c-10.88,9.55-21.82,17.32-31.65,22.41a61.12,61.12,0,0,1-11.75,4.83,19.25,19.25,0,0,0,23.27-2.94Z" />
  <path class="cls-3"
    d="M377.66,60.86c14.06,0,22.94-15.11,16-27.26A67,67,0,0,0,335.46,0h-.62a13.84,13.84,0,0,0-9.74,23.65L337.53,36a8.72,8.72,0,0,0,12.29,0,8.72,8.72,0,0,1,12.28,0,26.57,26.57,0,0,1,7.83,18.82,6.05,6.05,0,0,0,6.07,6Z" />
  <path class="cls-4"
    d="M331.85.35a67,67,0,0,1,55.94,43.22l0,0a135.47,135.47,0,0,1-10.95,17.24h.85c14.06,0,22.94-15.11,16-27.26A67,67,0,0,0,335.46,0h-.76a14.06,14.06,0,0,0-2.85.34Z" />
  <ellipse class="cls-3" cx="354.78" cy="59.36" rx="10.24" ry="10.19" />
  <ellipse class="cls-3" cx="288.21" cy="44.43" rx="8.44" ry="8.39" />
  <path class="cls-3"
    d="M399.89,84.76h-7.16a29.64,29.64,0,0,0-20.9,8.61l-7.15,7.12a4.48,4.48,0,0,0,3.18,7.65,4.61,4.61,0,0,1,4.62,4.6,4.62,4.62,0,0,0,7.69,3.44A66.58,66.58,0,0,0,399.89,84.76Z" />
  <path class="cls-4"
    d="M392.73,84.76a29.55,29.55,0,0,0-3.4.2,66.54,66.54,0,0,1-16.79,28.5,4.62,4.62,0,0,0,7.63,2.72,66.58,66.58,0,0,0,19.72-31.42Z" />
</svg>