<svg fill="white" opacity="0.1" xmlns="http://www.w3.org/2000/svg" viewBox="0 0 265.51 46.87">
  <path
    d="M265.49,8.37c-24.5,2.5-56.5-10.5-70,6C180.68,2,161.13-.16,154.67,0c-3.18.36-2.68,1.86-2.18,2.36,4.5,2.5,10,17-8,18-7.5,1.5-18.5-7.5-25.5-7.5-11.25-.87-9,11-4.33,12.26.73.2,2.33-.26.83-1.76-3-2-3.5-6.5,3.78-5.85,7.25.05,16.75,7.22,21.72,9.35-6,3-4,11-3,15-8-9-23-11-30-10,4-20-11-19-13-19-15,1-16,13-17,16-15-10-26-4-29-1-3,0,1-14,0-14-3,1-5,12-5,12s-9-5-13,1c-9-8-20,8-9,15,0,0-12,4-15-4s3-6,3.5-8c-.25-2.25-9-2-10.25,5S3,44.87,5,46.87H30.06a14.33,14.33,0,0,0,10.18-8c1.75-6-6.25-6-6.75-4.5s4.5.5,2.5,4.5c-1,2-5.5,3.5-11,1-6-4-3-10,0-11,5-1,3,5,1,6,0,1,4,0,6.5-4.5,2.5-2.5,5.5-4.5,10.5,0s-3,16.5-6,16.5H47s5-8,2.5-14.5C65,21.87,70,40.87,66,41.87s-3-5-6-5-2,8,4,10h8s4-3,0-14c1-1,14,9,18,14h11a27.68,27.68,0,0,0,5-8c12,0,20,3,23,8h33c-1,0,4-2,2-8s-10-5.25-10.25-3c-.75,3,7.25,1,3.25,8-3,4-13-1-13-7s2-12,18-11,20,21,20,21h12c0-5,3-18,5-18,3,0,6,14,5,18h8c-1-6,6-13,9-13s-1,10,0,13h5.19c-1.81,0,1.26-5,5.81-5s6.92,5,6,5h12s12-14-1-30C258,14.87,266,12.87,265.49,8.37ZM95,41.87c-2-2-8-7-12-10,2-13,11-15,16-12S99,37.87,95,41.87Zm91-9c0,1-12-14-23-13a33,33,0,0,0,0-14c9,0,27,10,30,13C190,20.87,186,31.87,186,32.87Zm56,8c-2-4-9-5-12-3,0-11-15-14-21-6,0-6-3-7-6-10C220,8.87,253,18.87,242,40.87Z" />
</svg>